<svg width="188" height="50" viewBox="0 0 188 50" fill="none" xmlns="http://www.w3.org/2000/svg">
<path d="M1.184 18.6C1.48267 18.6 1.792 18.6 2.112 18.6C2.432 18.6 2.752 18.6 3.072 18.6C3.392 18.6 3.69067 18.6 3.968 18.6C4.05333 18.6 4.128 18.6213 4.192 18.664C4.256 18.6853 4.29867 18.728 4.32 18.792C4.36267 18.856 4.39467 18.9307 4.416 19.016C4.62933 20.0613 4.85333 21.16 5.088 22.312C5.344 23.4427 5.6 24.6373 5.856 25.896C6.112 27.1333 6.368 28.4347 6.624 29.8C6.90133 31.144 7.168 32.5413 7.424 33.992C7.70133 35.4213 7.968 36.904 8.224 38.44L7.488 37.928H9.376L8.64 38.408C8.96 37.0427 9.32267 35.5173 9.728 33.832C10.1547 32.1467 10.6027 30.408 11.072 28.616C11.5413 26.824 12 25.064 12.448 23.336C12.896 21.608 13.3013 20.0293 13.664 18.6H16.512C16.576 18.6 16.6293 18.6107 16.672 18.632C16.7147 18.6533 16.7573 18.6853 16.8 18.728C16.8427 18.7707 16.8747 18.8347 16.896 18.92C17.1947 20.072 17.5147 21.32 17.856 22.664C18.2187 23.9867 18.5813 25.352 18.944 26.76C19.328 28.168 19.7013 29.5653 20.064 30.952C20.4267 32.3173 20.7573 33.64 21.056 34.92C21.376 36.2 21.6533 37.3733 21.888 38.44L21.152 37.928H22.944L22.368 38.28C22.6027 36.68 22.848 35.1867 23.104 33.8C23.36 32.392 23.6053 31.0587 23.84 29.8C24.0747 28.52 24.3093 27.2827 24.544 26.088C24.8 24.872 25.056 23.656 25.312 22.44C25.568 21.2027 25.8347 19.9227 26.112 18.6C26.4107 18.6 26.7093 18.6 27.008 18.6C27.328 18.6 27.648 18.6 27.968 18.6C28.288 18.6 28.5867 18.6 28.864 18.6C28.9707 18.6 29.0453 18.6213 29.088 18.664C29.152 18.7067 29.1947 18.7707 29.216 18.856C29.2373 18.92 29.2373 19.0053 29.216 19.112C29.024 19.9227 28.8107 20.8613 28.576 21.928C28.3413 22.9947 28.0853 24.1467 27.808 25.384C27.552 26.6 27.2853 27.8693 27.008 29.192C26.7307 30.5147 26.4427 31.8587 26.144 33.224C25.8453 34.5893 25.5573 35.944 25.28 37.288C25.0027 38.6107 24.736 39.8907 24.48 41.128C24.2027 41.128 23.8827 41.128 23.52 41.128C23.1573 41.128 22.784 41.128 22.4 41.128C22.016 41.128 21.6427 41.128 21.28 41.128C20.9387 41.128 20.6507 41.128 20.416 41.128C20.288 41.128 20.1813 41.0853 20.096 41C20.0107 40.936 19.936 40.808 19.872 40.616C19.5733 39.4427 19.232 38.1627 18.848 36.776C18.4853 35.368 18.1013 33.8747 17.696 32.296C17.2907 30.7173 16.8747 29.064 16.448 27.336C16.0213 25.5867 15.6053 23.784 15.2 21.928L16.352 23.272H14.272L15.264 21.928C14.9227 23.4 14.5707 24.8933 14.208 26.408C13.8667 27.9227 13.5147 29.4053 13.152 30.856C12.7893 32.2853 12.4373 33.6507 12.096 34.952C11.7547 36.232 11.4453 37.4053 11.168 38.472C10.8907 39.5173 10.656 40.4027 10.464 41.128C10.1013 41.128 9.664 41.128 9.152 41.128C8.64 41.128 8.128 41.128 7.616 41.128C7.12533 41.128 6.72 41.128 6.4 41.128C6.25067 41.128 6.13333 41.0853 6.048 41C5.96267 40.936 5.89867 40.808 5.856 40.616C5.62133 39.4853 5.36533 38.3013 5.088 37.064C4.832 35.8267 4.56533 34.5573 4.288 33.256C4.032 31.9547 3.76533 30.6533 3.488 29.352C3.21067 28.0293 2.93333 26.728 2.656 25.448C2.37867 24.1467 2.12267 22.888 1.888 21.672C1.80267 21.288 1.696 20.808 1.568 20.232C1.44 19.656 1.312 19.112 1.184 18.6ZM37.7172 23.624C38.9759 23.624 40.1279 23.8907 41.1733 24.424C42.2186 24.936 43.0506 25.7253 43.6693 26.792C44.3093 27.8373 44.6293 29.1813 44.6293 30.824V33.16C44.6293 33.224 44.6079 33.288 44.5653 33.352C44.5439 33.3947 44.5119 33.4373 44.4692 33.48C44.4266 33.5013 44.3626 33.512 44.2773 33.512H35.9893C35.6266 33.512 35.2639 33.512 34.9012 33.512C34.5386 33.512 34.1866 33.512 33.8453 33.512H32.8853L32.4693 31.432H41.7493C41.7493 31.3253 41.7493 31.2187 41.7493 31.112C41.7493 31.0053 41.7493 30.8987 41.7493 30.792C41.7493 29.96 41.6533 29.2453 41.4613 28.648C41.2906 28.0293 41.0133 27.528 40.6293 27.144C40.2879 26.824 39.8719 26.5893 39.3813 26.44C38.8906 26.2693 38.3359 26.184 37.7172 26.184C36.3306 26.184 35.2639 26.5573 34.5173 27.304C33.7706 28.0293 33.3973 29.224 33.3973 30.888V34.248C33.3973 34.9307 33.4933 35.5493 33.6852 36.104C33.8772 36.6587 34.1439 37.1173 34.4852 37.48C34.9119 37.9067 35.4666 38.2267 36.1493 38.44C36.8532 38.632 37.6639 38.728 38.5813 38.728C39.3919 38.728 40.0853 38.6853 40.6613 38.6C41.2586 38.5147 41.8133 38.3867 42.3253 38.216C42.8373 38.0453 43.3599 37.832 43.8933 37.576H44.3733C44.3733 37.9173 44.3733 38.2693 44.3733 38.632C44.3733 38.9947 44.3733 39.3573 44.3733 39.72C44.3733 39.7627 44.3626 39.8053 44.3413 39.848C44.3199 39.8907 44.2879 39.9333 44.2453 39.976C44.0319 40.1893 43.6373 40.4027 43.0613 40.616C42.5066 40.8293 41.8239 41 41.0133 41.128C40.2239 41.2773 39.3706 41.352 38.4532 41.352C37.2373 41.352 36.1279 41.2027 35.1253 40.904C34.1439 40.6053 33.3013 40.1573 32.5972 39.56C31.9146 38.9627 31.3919 38.2267 31.0292 37.352C30.6666 36.456 30.4852 35.4213 30.4852 34.248V30.92C30.4852 29.6827 30.6666 28.6053 31.0292 27.688C31.4132 26.7707 31.9359 26.0133 32.5972 25.416C33.2586 24.8187 34.0266 24.3707 34.9012 24.072C35.7759 23.7733 36.7146 23.624 37.7172 23.624Z" fill="white"/>
<path d="M89.656 33.256C89.656 34.5573 89.464 35.6987 89.08 36.68C88.696 37.6613 88.1307 38.472 87.384 39.112C86.6587 39.7307 85.7947 40.2 84.792 40.52C83.7893 40.84 82.6693 41 81.432 41C80.92 41 80.3867 41 79.832 41C79.2773 41 78.7227 41 78.168 41C77.6133 41 77.08 41 76.568 41C76.056 41 75.5973 41 75.192 41C74.7867 41 74.4667 41 74.232 41C74.1253 41 74.04 40.968 73.976 40.904C73.912 40.8187 73.88 40.7333 73.88 40.648C73.88 38.92 73.88 37.2027 73.88 35.496C73.88 33.768 73.88 32.0507 73.88 30.344C73.88 28.616 73.88 26.8987 73.88 25.192C73.88 23.464 73.88 21.736 73.88 20.008H77.24L76.952 20.552C76.952 21.128 76.952 21.736 76.952 22.376C76.952 22.9947 76.952 23.6027 76.952 24.2C76.952 25.3947 76.952 26.5787 76.952 27.752C76.952 28.904 76.952 30.056 76.952 31.208C76.952 32.36 76.952 33.5227 76.952 34.696C76.952 35.848 76.952 37.032 76.952 38.248C77.3147 38.248 77.7307 38.248 78.2 38.248C78.6907 38.248 79.2027 38.248 79.736 38.248C80.2693 38.248 80.8027 38.248 81.336 38.248C82.5947 38.248 83.6187 38.056 84.408 37.672C85.2187 37.288 85.8053 36.7227 86.168 35.976C86.552 35.208 86.744 34.2373 86.744 33.064V26.536C86.744 25.8747 86.6907 25.288 86.584 24.776C86.4987 24.264 86.3493 23.816 86.136 23.432C85.944 23.048 85.688 22.7173 85.368 22.44C85.048 22.1627 84.696 21.9493 84.312 21.8C83.928 21.6293 83.48 21.512 82.968 21.448C82.456 21.384 81.8587 21.352 81.176 21.352C80.4293 21.352 79.672 21.352 78.904 21.352C78.136 21.352 77.3573 21.352 76.568 21.352C75.8 21.352 75.0533 21.352 74.328 21.352C73.624 21.352 72.952 21.352 72.312 21.352C72.248 21.352 72.184 21.3413 72.12 21.32C72.0773 21.2773 72.0347 21.2347 71.992 21.192C71.9707 21.128 71.96 21.064 71.96 21C71.96 20.6373 71.96 20.2427 71.96 19.816C71.96 19.3893 71.96 18.984 71.96 18.6C72.6 18.6 73.2933 18.6 74.04 18.6C74.808 18.6 75.5973 18.6 76.408 18.6C77.2187 18.6 78.04 18.6 78.872 18.6C79.7253 18.6 80.5787 18.6 81.432 18.6C82.7973 18.6 83.992 18.76 85.016 19.08C86.04 19.4 86.8933 19.8907 87.576 20.552C88.28 21.192 88.8027 21.992 89.144 22.952C89.4853 23.912 89.656 25.0427 89.656 26.344V33.256ZM99.7485 23.624C101.007 23.624 102.159 23.8907 103.205 24.424C104.25 24.936 105.082 25.7253 105.701 26.792C106.341 27.8373 106.661 29.1813 106.661 30.824V33.16C106.661 33.224 106.639 33.288 106.597 33.352C106.575 33.3947 106.543 33.4373 106.5 33.48C106.458 33.5013 106.394 33.512 106.309 33.512H98.0205C97.6578 33.512 97.2952 33.512 96.9325 33.512C96.5698 33.512 96.2178 33.512 95.8765 33.512H94.9165L94.5005 31.432H103.781C103.781 31.3253 103.781 31.2187 103.781 31.112C103.781 31.0053 103.781 30.8987 103.781 30.792C103.781 29.96 103.685 29.2453 103.493 28.648C103.322 28.0293 103.045 27.528 102.661 27.144C102.319 26.824 101.903 26.5893 101.413 26.44C100.922 26.2693 100.367 26.184 99.7485 26.184C98.3618 26.184 97.2952 26.5573 96.5485 27.304C95.8018 28.0293 95.4285 29.224 95.4285 30.888V34.248C95.4285 34.9307 95.5245 35.5493 95.7165 36.104C95.9085 36.6587 96.1752 37.1173 96.5165 37.48C96.9432 37.9067 97.4978 38.2267 98.1805 38.44C98.8845 38.632 99.6952 38.728 100.613 38.728C101.423 38.728 102.117 38.6853 102.693 38.6C103.29 38.5147 103.845 38.3867 104.357 38.216C104.869 38.0453 105.391 37.832 105.925 37.576H106.405C106.405 37.9173 106.405 38.2693 106.405 38.632C106.405 38.9947 106.405 39.3573 106.405 39.72C106.405 39.7627 106.394 39.8053 106.373 39.848C106.351 39.8907 106.319 39.9333 106.277 39.976C106.063 40.1893 105.669 40.4027 105.093 40.616C104.538 40.8293 103.855 41 103.045 41.128C102.255 41.2773 101.402 41.352 100.484 41.352C99.2685 41.352 98.1592 41.2027 97.1565 40.904C96.1752 40.6053 95.3325 40.1573 94.6285 39.56C93.9458 38.9627 93.4232 38.2267 93.0605 37.352C92.6978 36.456 92.5165 35.4213 92.5165 34.248V30.92C92.5165 29.6827 92.6978 28.6053 93.0605 27.688C93.4445 26.7707 93.9672 26.0133 94.6285 25.416C95.2898 24.8187 96.0578 24.3707 96.9325 24.072C97.8072 23.7733 98.7458 23.624 99.7485 23.624ZM111.207 23.976C111.271 23.976 111.324 23.9867 111.367 24.008C111.41 24.0293 111.442 24.072 111.463 24.136C111.506 24.1787 111.538 24.2427 111.559 24.328C112.071 25.8 112.583 27.2933 113.095 28.808C113.607 30.3227 114.119 31.9013 114.631 33.544C115.164 35.1867 115.698 36.968 116.231 38.888H116.711C117.052 37.7573 117.372 36.6587 117.671 35.592C117.991 34.5253 118.311 33.5013 118.631 32.52C118.951 31.5173 119.271 30.536 119.591 29.576C119.911 28.616 120.22 27.6773 120.519 26.76C120.839 25.8213 121.148 24.8933 121.447 23.976C121.895 23.976 122.343 23.976 122.791 23.976C123.239 23.976 123.687 23.976 124.135 23.976C124.22 23.976 124.284 23.9973 124.327 24.04C124.391 24.0827 124.434 24.136 124.455 24.2C124.476 24.264 124.466 24.3493 124.423 24.456C123.954 25.8213 123.474 27.1973 122.983 28.584C122.514 29.9493 122.034 31.3253 121.543 32.712C121.074 34.0987 120.594 35.4853 120.103 36.872C119.634 38.2373 119.154 39.6133 118.663 41C118.002 41 117.34 41 116.679 41C116.018 41 115.399 41 114.823 41C114.695 41 114.578 40.9787 114.471 40.936C114.364 40.8933 114.268 40.808 114.183 40.68C114.119 40.552 114.044 40.36 113.959 40.104C113.596 39.1013 113.223 38.0773 112.839 37.032C112.476 35.9867 112.114 34.9307 111.751 33.864C111.388 32.776 111.015 31.688 110.631 30.6C110.247 29.4907 109.863 28.392 109.479 27.304C109.095 26.1947 108.711 25.0853 108.327 23.976C108.818 23.976 109.298 23.976 109.767 23.976C110.236 23.976 110.716 23.976 111.207 23.976ZM125.77 23.976C126.282 23.976 126.794 23.976 127.306 23.976C127.839 23.976 128.362 23.976 128.874 23.976C129.023 23.976 129.14 24.0187 129.226 24.104C129.332 24.168 129.428 24.2533 129.514 24.36C130.196 25.4907 130.879 26.632 131.562 27.784C132.266 28.9147 132.948 30.0453 133.61 31.176L134.698 31.784C135.722 33.32 136.746 34.856 137.77 36.392C138.794 37.928 139.818 39.464 140.842 41C140.586 41 140.33 41 140.074 41C139.839 41 139.594 41 139.338 41C139.103 41 138.868 41 138.634 41C138.42 41 138.218 41 138.026 41C137.77 41 137.578 40.968 137.45 40.904C137.343 40.84 137.215 40.6907 137.066 40.456C136.746 39.9867 136.34 39.3573 135.85 38.568C135.38 37.7787 134.879 36.9467 134.346 36.072C133.834 35.176 133.332 34.3333 132.842 33.544L131.786 32.936C130.783 31.4427 129.78 29.96 128.778 28.488C127.796 26.9947 126.794 25.4907 125.77 23.976ZM131.85 31.56L134.026 34.28H132.746C132.362 35.0267 131.956 35.7733 131.53 36.52C131.124 37.2667 130.708 38.0133 130.282 38.76C129.855 39.5067 129.418 40.2533 128.97 41L126.186 41.032C126.079 41.032 125.994 41 125.93 40.936C125.866 40.872 125.834 40.7867 125.834 40.68C125.834 40.616 125.855 40.5413 125.898 40.456C125.94 40.3707 126.004 40.264 126.09 40.136C127.05 38.7067 128.01 37.2773 128.97 35.848C129.93 34.4187 130.89 32.9893 131.85 31.56ZM140.106 23.976C140.212 23.976 140.298 24.008 140.362 24.072C140.447 24.1147 140.49 24.1893 140.49 24.296C140.49 24.3387 140.479 24.392 140.458 24.456C140.436 24.4987 140.404 24.5627 140.362 24.648C139.423 26.056 138.474 27.4747 137.514 28.904C136.554 30.3333 135.594 31.7627 134.634 33.192L132.586 30.6H133.77C134.132 29.8533 134.495 29.1173 134.858 28.392C135.242 27.6453 135.636 26.9093 136.042 26.184C136.468 25.4373 136.884 24.7013 137.29 23.976H140.106Z" fill="white"/>
<path d="M145.789 40.648C145.789 39.8587 145.789 38.9947 145.789 38.056C145.789 37.1173 145.789 36.1467 145.789 35.144C145.789 34.1413 145.789 33.1387 145.789 32.136C145.789 31.1333 145.789 30.1733 145.789 29.256C145.789 28.3173 145.789 27.4427 145.789 26.632H145.341C145.17 26.632 144.978 26.632 144.765 26.632C144.573 26.632 144.37 26.632 144.157 26.632C143.944 26.632 143.73 26.632 143.517 26.632C143.325 26.632 143.122 26.632 142.909 26.632C142.824 26.632 142.738 26.6 142.653 26.536C142.589 26.472 142.557 26.3867 142.557 26.28C142.557 25.9173 142.557 25.544 142.557 25.16C142.557 24.7547 142.557 24.36 142.557 23.976C142.92 23.976 143.293 23.976 143.677 23.976C144.082 23.976 144.498 23.976 144.925 23.976C145.352 23.976 145.768 23.976 146.173 23.976C146.578 23.976 146.962 23.976 147.325 23.976C147.709 23.976 148.061 23.976 148.381 23.976C148.445 23.976 148.498 23.9973 148.541 24.04C148.605 24.0613 148.648 24.104 148.669 24.168C148.712 24.2107 148.733 24.264 148.733 24.328C148.733 25.416 148.733 26.5467 148.733 27.72C148.733 28.872 148.733 30.0347 148.733 31.208C148.733 32.3813 148.733 33.544 148.733 34.696C148.733 35.848 148.733 36.968 148.733 38.056C148.733 38.376 148.733 38.7067 148.733 39.048C148.733 39.368 148.733 39.688 148.733 40.008C148.733 40.328 148.733 40.6587 148.733 41C148.264 41 147.826 41 147.421 41C147.037 41 146.61 41 146.141 41C146.056 41 145.97 40.968 145.885 40.904C145.821 40.8187 145.789 40.7333 145.789 40.648ZM145.213 16.232C145.512 16.232 145.81 16.232 146.109 16.232C146.429 16.232 146.738 16.232 147.037 16.232C147.357 16.232 147.666 16.232 147.965 16.232C148.285 16.232 148.594 16.232 148.893 16.232C149 16.232 149.085 16.264 149.149 16.328C149.213 16.392 149.245 16.4773 149.245 16.584V19.72C148.946 19.72 148.637 19.72 148.317 19.72C148.018 19.72 147.709 19.72 147.389 19.72C147.09 19.72 146.781 19.72 146.461 19.72C146.162 19.72 145.864 19.72 145.565 19.72C145.458 19.72 145.373 19.688 145.309 19.624C145.245 19.56 145.213 19.4747 145.213 19.368V16.232ZM160.112 23.624C161.2 23.624 162.192 23.8053 163.088 24.168C163.984 24.5093 164.752 24.9893 165.392 25.608C166.054 26.2267 166.555 26.9627 166.896 27.816C167.238 28.6693 167.408 29.608 167.408 30.632V34.184C167.408 35.592 167.088 36.84 166.448 37.928C165.83 38.9947 164.966 39.8373 163.856 40.456C162.747 41.0533 161.499 41.352 160.112 41.352C159.024 41.352 158.032 41.1813 157.136 40.84C156.24 40.4987 155.462 40.0187 154.8 39.4C154.16 38.76 153.67 38.0133 153.328 37.16C152.987 36.3067 152.816 35.368 152.816 34.344V30.792C152.816 29.3627 153.126 28.1147 153.744 27.048C154.384 25.9813 155.259 25.1493 156.368 24.552C157.478 23.9333 158.726 23.624 160.112 23.624ZM160.272 26.312C159.291 26.312 158.459 26.5147 157.776 26.92C157.115 27.3253 156.603 27.8693 156.24 28.552C155.899 29.2347 155.728 30.0133 155.728 30.888V34.12C155.728 34.824 155.835 35.464 156.048 36.04C156.283 36.5947 156.592 37.0747 156.976 37.48C157.339 37.8427 157.766 38.1307 158.256 38.344C158.768 38.5573 159.334 38.664 159.952 38.664C160.934 38.664 161.755 38.4613 162.416 38.056C163.099 37.6293 163.611 37.0747 163.952 36.392C164.315 35.7093 164.496 34.9413 164.496 34.088V30.856C164.496 30.1093 164.39 29.448 164.176 28.872C163.984 28.296 163.686 27.816 163.28 27.432C162.939 27.0693 162.512 26.792 162 26.6C161.488 26.408 160.912 26.312 160.272 26.312Z" fill="#274AFF"/>
<path d="M73.8505 43.1424C73.0843 42.3893 72.3385 41.6145 71.614 40.819C71.0054 40.1845 70.639 39.7228 70.639 39.7228L66.058 37.4783C67.892 35.3441 68.9042 32.5966 68.9047 29.7511C68.9047 23.2729 63.7675 18 57.4524 18C51.1372 18 46 23.2729 46 29.7511C46 36.2294 51.1372 41.5023 57.4524 41.5023C60.3367 41.5023 62.9659 40.3943 64.9831 38.5829L67.1705 43.2834C67.1705 43.2834 67.6204 43.6594 68.2389 44.2839C68.872 44.8933 69.7048 45.7176 70.5032 46.5787L72.7249 48.9155L73.7131 50L77.1832 46.4394L76.1263 45.4255C75.5062 44.801 74.6784 43.9717 73.8505 43.1424V43.1424ZM57.4524 38.1448C52.9418 38.1448 49.2721 34.3794 49.2721 29.7511C49.2721 25.1229 52.9418 21.3575 57.4524 21.3575C61.963 21.3575 65.6326 25.1229 65.6326 29.7511C65.6326 34.3794 61.963 38.1448 57.4524 38.1448Z" fill="white"/>
<path d="M59.5916 23.0829C60.4618 23.3791 61.2609 23.8611 61.9365 24.497C61.9923 24.5496 62.0316 24.6181 62.0495 24.6936C62.0673 24.7692 62.0629 24.8485 62.0367 24.9215L61.5014 26.4222C61.4634 26.5291 61.4485 26.6431 61.4576 26.7565C61.4668 26.8699 61.4999 26.9798 61.5546 27.0787C61.6094 27.1777 61.6844 27.2632 61.7745 27.3294C61.8647 27.3956 61.9678 27.4409 62.0767 27.4622L63.6084 27.7609C63.6829 27.7753 63.7516 27.8122 63.8057 27.8668C63.8598 27.9214 63.8968 27.9913 63.912 28.0676C64.0962 28.9881 64.0894 29.9381 63.8921 30.8558C63.8758 30.9318 63.8378 31.0011 63.7829 31.0549C63.7281 31.1087 63.6589 31.1446 63.5841 31.1579L62.0483 31.4335C61.9391 31.4531 61.8354 31.4969 61.7443 31.5617C61.6532 31.6266 61.577 31.711 61.5209 31.8091C61.4647 31.9071 61.4301 32.0166 61.4193 32.1298C61.4085 32.243 61.4218 32.3573 61.4583 32.4647L61.972 33.9741C61.9971 34.0475 62.0003 34.127 61.9812 34.2022C61.9622 34.2775 61.9217 34.3453 61.865 34.397C61.1807 35.0227 60.375 35.4925 59.5009 35.7757C59.4286 35.799 59.3513 35.7997 59.2786 35.7778C59.2059 35.7559 59.1412 35.7123 59.0927 35.6526L58.0922 34.4251C58.021 34.3379 57.9322 34.2676 57.832 34.2191C57.7317 34.1706 57.6224 34.1451 57.5115 34.1442C57.4007 34.1434 57.291 34.1673 57.1901 34.2143C57.0891 34.2613 56.9994 34.3302 56.927 34.4163L55.909 35.6287C55.8596 35.6875 55.7942 35.73 55.7212 35.7506C55.6483 35.7713 55.571 35.7693 55.4991 35.7449C54.6289 35.4487 53.8297 34.9667 53.1542 34.3307C53.0984 34.2781 53.059 34.2097 53.0412 34.1341C53.0233 34.0585 53.0278 33.9792 53.054 33.9063L53.5892 32.4055C53.6273 32.2987 53.6422 32.1846 53.633 32.0712C53.6238 31.9579 53.5907 31.8479 53.536 31.749C53.4813 31.6501 53.4063 31.5645 53.3161 31.4983C53.226 31.4321 53.1229 31.3868 53.014 31.3655L51.4815 31.0669C51.4071 31.0523 51.3386 31.0154 51.2847 30.9608C51.2307 30.9062 51.1938 30.8363 51.1786 30.7602C50.9944 29.8396 51.0012 28.8896 51.1986 27.972C51.2149 27.8959 51.2529 27.8266 51.3077 27.7728C51.3626 27.719 51.4318 27.6832 51.5066 27.6699L53.0424 27.3943C53.1516 27.3746 53.2553 27.3309 53.3464 27.266C53.4374 27.2012 53.5137 27.1168 53.5698 27.0187C53.6259 26.9206 53.6606 26.8112 53.6714 26.6979C53.6822 26.5847 53.6689 26.4705 53.6324 26.3631L53.1186 24.8544C53.0936 24.781 53.0904 24.7016 53.1094 24.6263C53.1285 24.551 53.1689 24.4832 53.2256 24.4315C53.91 23.8058 54.7157 23.336 55.5897 23.0528C55.6619 23.0294 55.7393 23.0286 55.812 23.0503C55.8846 23.0721 55.9494 23.1155 55.9979 23.1751L56.9985 24.4026C57.0696 24.4898 57.1584 24.5601 57.2587 24.6086C57.3589 24.6571 57.4683 24.6827 57.5791 24.6835C57.69 24.6843 57.7996 24.6604 57.9006 24.6135C58.0015 24.5665 58.0913 24.4975 58.1637 24.4114L59.1817 23.1991C59.2311 23.1402 59.2964 23.0978 59.3694 23.0771C59.4424 23.0564 59.5197 23.0584 59.5916 23.0829V23.0829ZM59.2526 27.9352L57.8095 26.6824C57.7412 26.6232 57.6549 26.5904 57.5655 26.5897C57.4761 26.589 57.3893 26.6205 57.3202 26.6787L56.0363 27.7604C55.944 27.8382 55.943 27.9825 56.0342 28.0617L56.8777 28.7937C56.9118 28.8234 56.955 28.8398 56.9997 28.8401C57.0444 28.8404 57.0878 28.8247 57.1223 28.7956L57.5523 28.4332L58.0995 28.9081L59.2533 27.936L59.2526 27.9352ZM59.8461 28.4505L57.5383 30.3945L55.5702 28.6866C55.5424 28.6626 55.5086 28.6471 55.4726 28.6421C55.4366 28.637 55.4 28.6426 55.367 28.6582C55.3339 28.6737 55.3059 28.6986 55.2862 28.7299C55.2665 28.7612 55.2559 28.7976 55.2556 28.8349L55.2452 30.2855C55.245 30.3142 55.251 30.3427 55.2627 30.3688C55.2744 30.3949 55.2916 30.4181 55.313 30.4366L57.2812 32.1445C57.3494 32.2038 57.4358 32.2366 57.5252 32.2372C57.6146 32.2379 57.7014 32.2064 57.7705 32.1482L59.8321 30.4118L59.8461 28.4505Z" fill="#1D26FF"/>
<rect x="46" width="3" height="31" rx="1.5" fill="white"/>
</svg>
