<svg width="13" height="12" viewBox="0 0 13 12" fill="none" xmlns="http://www.w3.org/2000/svg">
<path d="M8.68518 9.75C8.68518 9.05964 9.25865 8.5 9.96606 8.5C10.6735 8.5 11.2469 9.05964 11.2469 9.75C11.2469 10.4404 10.6735 11 9.96606 11C9.25865 11 8.68518 10.4404 8.68518 9.75Z" stroke="#274AFF" stroke-width="2" stroke-linecap="round" stroke-linejoin="round"/>
<path d="M1 9.75C1 9.05964 1.57347 8.5 2.28088 8.5C2.98829 8.5 3.56176 9.05964 3.56176 9.75C3.56176 10.4404 2.98829 11 2.28088 11C1.57347 11 1 10.4404 1 9.75Z" stroke="#274AFF" stroke-width="2" stroke-linecap="round" stroke-linejoin="round"/>
<path d="M8.68518 2.25C8.68518 1.55964 9.25865 1 9.96606 1C10.6735 1 11.2469 1.55964 11.2469 2.25C11.2469 2.94036 10.6735 3.5 9.96606 3.5C9.25865 3.5 8.68518 2.94036 8.68518 2.25Z" stroke="#274AFF" stroke-width="2" stroke-linecap="round" stroke-linejoin="round"/>
<path d="M1 2.25C1 1.55964 1.57347 1 2.28088 1C2.98829 1 3.56176 1.55964 3.56176 2.25C3.56176 2.94036 2.98829 3.5 2.28088 3.5C1.57347 3.5 1 2.94036 1 2.25Z" stroke="#274AFF" stroke-width="2" stroke-linecap="round" stroke-linejoin="round"/>
</svg>
