<svg width="32" height="30" viewBox="0 0 32 30" fill="none" xmlns="http://www.w3.org/2000/svg">
<rect x="1.48047" y="0.5" width="29.7411" height="29" fill="white"/>
<path d="M18.9121 18.75C18.9121 18.0596 19.4856 17.5 20.193 17.5C20.9004 17.5 21.4739 18.0596 21.4739 18.75C21.4739 19.4404 20.9004 20 20.193 20C19.4856 20 18.9121 19.4404 18.9121 18.75Z" stroke="#274AFF" stroke-width="2" stroke-linecap="round" stroke-linejoin="round"/>
<path d="M11.2266 18.75C11.2266 18.0596 11.8 17.5 12.5074 17.5C13.2148 17.5 13.7883 18.0596 13.7883 18.75C13.7883 19.4404 13.2148 20 12.5074 20C11.8 20 11.2266 19.4404 11.2266 18.75Z" stroke="#274AFF" stroke-width="2" stroke-linecap="round" stroke-linejoin="round"/>
<path d="M18.9121 11.25C18.9121 10.5596 19.4856 10 20.193 10C20.9004 10 21.4739 10.5596 21.4739 11.25C21.4739 11.9404 20.9004 12.5 20.193 12.5C19.4856 12.5 18.9121 11.9404 18.9121 11.25Z" stroke="#274AFF" stroke-width="2" stroke-linecap="round" stroke-linejoin="round"/>
<path d="M11.2266 11.25C11.2266 10.5596 11.8 10 12.5074 10C13.2148 10 13.7883 10.5596 13.7883 11.25C13.7883 11.9404 13.2148 12.5 12.5074 12.5C11.8 12.5 11.2266 11.9404 11.2266 11.25Z" stroke="#274AFF" stroke-width="2" stroke-linecap="round" stroke-linejoin="round"/>
<rect x="1.48047" y="0.5" width="29.7411" height="29" stroke="#D2D2D2"/>
</svg>
